<?xml version="1.0" encoding="utf-8" ?>
<svg baseProfile="full" height="200mm" version="1.1" viewBox="0,0,200,200" width="200mm" xmlns="http://www.w3.org/2000/svg" xmlns:ev="http://www.w3.org/2001/xml-events" xmlns:xlink="http://www.w3.org/1999/xlink"><defs /><rect fill="#1a1a1a" height="200" width="200" x="0" y="0" /><rect fill="#1a1a1a" height="200" width="180" x="10" y="0" /><text alignment-baseline="middle" fill="#e1ed5e" style="dominant-baseline: central; font-size:9.0px; font-family:Arial;" text-anchor="middle" x="100.0" y="100.0">2023</text><line stroke="#e1ed5e" stroke-width="0.3" x1="100.0" x2="100.0" y1="15.0" y2="10.0" /><path d="M 100.0 14.0 a86.0,86.0 0 0,1 42.46469731375804,11.215312516191453" fill="none" id="id109" stroke="none" /><text fill="#e1ed5e" style="font-size:6.75px; font-family:Arial;" text-anchor="middle"><textPath startOffset="22.20632615414155" xlink:href="#id109">January</textPath></text><line stroke="#e1ed5e" stroke-width="0.3" x1="143.23703022742887" x2="145.7803849466894" y1="26.81831364943548" y2="22.513508569990506" /><path d="M 143.74570117128098 25.957352633546492 a86.0,86.0 0 0,1 28.547481713284135,27.462654790039103" fill="none" id="id110" stroke="none" /><text fill="#e1ed5e" style="font-size:6.75px; font-family:Arial;" text-anchor="middle"><textPath startOffset="19.985693538727396" xlink:href="#id110">February</textPath></text><line stroke="#e1ed5e" stroke-width="0.3" x1="172.23445277983987" x2="176.4835382374775" y1="55.19839476539836" y2="52.563006222186495" /><path d="M 173.08426987136738 54.67131705675599 a86.0,86.0 0 0,1 12.851231095245387,41.99856678651699" fill="none" id="id111" stroke="none" /><text fill="#e1ed5e" style="font-size:6.75px; font-family:Arial;" text-anchor="middle"><textPath startOffset="22.20632615414155" xlink:href="#id111">March</textPath></text><line stroke="#e1ed5e" stroke-width="0.3" x1="184.98032266829074" x2="189.97916517819016" y1="98.17113171792111" y2="98.06355123074" /><path d="M 185.9800911702706 98.14961562048488 a86.0,86.0 0 0,1 -9.607161424134198,41.387399972396054" fill="none" id="id112" stroke="none" /><text fill="#e1ed5e" style="font-size:6.75px; font-family:Arial;" text-anchor="middle"><textPath startOffset="21.466115282336823" xlink:href="#id112">April</textPath></text><line stroke="#e1ed5e" stroke-width="0.3" x1="174.80103733775053" x2="179.2010983576182" y1="140.37084112569926" y2="142.7455964860345" /><path d="M 175.68104954172406 140.8457921977663 a86.0,86.0 0 0,1 -30.038265399797805,32.042727171017184" fill="none" id="id113" stroke="none" /><text fill="#e1ed5e" style="font-size:6.75px; font-family:Arial;" text-anchor="middle"><textPath startOffset="22.206326154141568" xlink:href="#id113">May</textPath></text><line stroke="#e1ed5e" stroke-width="0.3" x1="143.8653032363475" x2="146.44561519142675" y1="172.8068346515853" y2="177.08958963109032" /><path d="M 144.38136562736335 173.6633856474863 a86.0,86.0 0 0,1 -40.68145358897372,12.25698825130547" fill="none" id="id114" stroke="none" /><text fill="#e1ed5e" style="font-size:6.75px; font-family:Arial;" text-anchor="middle"><textPath startOffset="21.466115282336833" xlink:href="#id114">June</textPath></text><line stroke="#e1ed5e" stroke-width="0.3" x1="102.19456741930631" x2="102.32365962044197" y1="184.97166512339345" y2="189.96999836594603" /><path d="M 102.22038585953345 185.97133177190398 a86.0,86.0 0 0,1 -42.740103519485714,-10.115201625700543" fill="none" id="id115" stroke="none" /><text fill="#e1ed5e" style="font-size:6.75px; font-family:Arial;" text-anchor="middle"><textPath startOffset="22.20632615414155" xlink:href="#id115">July</textPath></text><line stroke="#e1ed5e" stroke-width="0.3" x1="58.666819895761336" x2="56.23545636021788" y1="174.27360380694188" y2="178.64263932499728" /><path d="M 58.180547188652646 175.14741091055294 a86.0,86.0 0 0,1 -31.652253787137756,-30.449443065178592" fill="none" id="id116" stroke="none" /><text fill="#e1ed5e" style="font-size:6.75px; font-family:Arial;" text-anchor="middle"><textPath startOffset="22.20632615414155" xlink:href="#id116">August</textPath></text><line stroke="#e1ed5e" stroke-width="0.3" x1="26.63291911575756" x2="22.317208475507996" y1="142.92168965132927" y2="145.44649492493687" /><path d="M 25.769776987707644 143.4266507060508 a86.0,86.0 0 0,1 -11.730757126820373,-40.83630448921669" fill="none" id="id117" stroke="none" /><text fill="#e1ed5e" style="font-size:6.75px; font-family:Arial;" text-anchor="middle"><textPath startOffset="21.46611528233685" xlink:href="#id117">September</textPath></text><path d="M 79.58551787078972 104.9243191809786 l -29.244001868193614 7.0541490309012636 a51.08276356681807,51.08276356681807 0 0,0 -0.19883219926928403,-0.8565639105299516 l 29.361094633393453 -6.549716463022738" fill="red" stroke="none" /><path d="M 79.4281124754447 104.21870165774334 l -29.203916447122694 5.988882185993666 a50.81166626822854,50.81166626822854 0 0,0 -0.16833195370946322,-0.8583210054027768 l 29.302678333807822 -5.485297453522935" fill="red" stroke="none" /><path d="M 79.18660465613746 102.79330883721812 l -32.16597550560216 4.316907556557562 a53.45436289744203,53.45436289744203 0 0,0 -0.1145412216455319,-0.913006234628111 l 32.23551823649454 -3.762583567642043" fill="red" stroke="none" /><path d="M 79.10278846688536 102.07522291339032 l -33.0818395343737 3.28523216171902 a54.24456131962706,54.24456131962706 0 0,0 -0.08427384346789409,-0.9299548402421091 l 33.133487974118665 -2.7152959329283446" fill="red" stroke="none" /><path d="M 79.04373962182676 101.35467743843564 l -36.624108503131154 2.3674955644130793 a57.70054984460913,57.70054984460913 0 0,0 -0.05553993657882953,-0.9917028772341098 l 36.659434790597516 -1.7367209708435318" fill="red" stroke="none" /><line stroke="#e1ed5e" stroke-width="0.3" x1="15.007084014347285" x2="10.007500721073583" y1="101.09737516637583" y2="101.16192664675087" /><path d="M 14.007167355692545 101.11028546245083 a86.0,86.0 0 0,1 10.666146001902534,-42.60595125391555" fill="none" id="id118" stroke="none" /><text fill="#e1ed5e" style="font-size:6.75px; font-family:Arial;" text-anchor="middle"><textPath startOffset="22.20632615414155" xlink:href="#id118">October</textPath></text><path d="M 79.00175016825051 100.2711162175752 l -37.58300187433472 0.4852481228166483 a58.58613435333493,58.58613435333493 0 0,0 -0.004340124191001132,-1.0084920132103152 l 37.58578629581522 0.16175336859734235" fill="red" stroke="none" /><path d="M 79.03285615573316 98.82574320788736 l -39.90123161795406 -2.2346530642920146 a60.96375806837198,60.96375806837198 0 0,0 0.067697086109732,-1.0472439586779767 l 39.85685394083992 2.921156087223003" fill="red" stroke="none" /><path d="M 79.12142395522702 97.74499172005258 l -42.074598285206406 -4.54430260498322 a63.319292373894335,63.319292373894335 0 0,0 0.12636615197392648,-1.0826280196040756 l 41.990141780228896 5.267874362912157" fill="red" stroke="none" /><path d="M 79.21141760316559 97.0276538004421 l -41.864417976202176 -5.985763785760426 a63.290174515897675,63.290174515897675 0 0,0 0.16348185574692917,-1.0771411689924393 l 41.75518022701595 6.705504067144957" fill="red" stroke="none" /><path d="M 79.32604984820605 96.31383870115002 l -40.82895104087251 -7.2797940448959375 a62.47286636385369,62.47286636385369 0 0,0 0.19787321340322303,-1.0570466182299176 l 40.69759210355943 7.981518740588428" fill="red" stroke="none" /><path d="M 79.62865764111835 94.90015583598534 l -53.241133924034834 -13.328600606902647 a75.88415013148457,75.88415013148457 0 0,0 0.32812186594490944,-1.2643873988187195 l 53.003815726219614 14.24308443127023" fill="red" stroke="none" /><path d="M 79.81627453868168 94.20196356495316 l -40.5131713407413 -11.637932946674715 a63.15161367439637,63.15161367439637 0 0,0 0.3091244511241731,-1.0422139751943424 l 40.30684099250542 12.333576308615596" fill="red" stroke="none" /><path d="M 80.02781315780177 93.51064311812611 l -53.17099381116135 -17.27630315752428 a76.90729141764285,76.90729141764285 0 0,0 0.41992372202999395,-1.2555184799694867 l 52.865732795359584 18.188994740416085" fill="red" stroke="none" /><path d="M 80.2630227832202 92.82701384747504 l -47.738666193758405 -17.34960666908595 a71.79359311498925,71.79359311498925 0 0,0 0.43211336879598966,-1.1578489951226871 l 47.43294823646079 18.16877880123798" fill="red" stroke="none" /><path d="M 80.52162464483688 92.15188598940014 l -47.3162007312655 -19.064369133279286 a72.01247908199858,72.01247908199858 0 0,0 0.4731504946131901,-1.145771452666415 l 46.981028549766116 19.876015156399014" fill="red" stroke="none" /><path d="M 80.95270993114464 91.15688171328213 l -45.87924356150109 -21.30043571830136 a71.58273966053072,71.58273966053072 0 0,0 0.5284912974630652,-1.1131374545416943 l 45.50579407019627 22.087015588483588" fill="red" stroke="none" /><path d="M 81.26839172434947 90.50648371742162 l -49.733024506185686 -25.20559211912873 a76.75567774324648,76.75567774324648 0 0,0 0.6074318853490358,-1.1733650608084463 l 49.291783187676536 26.057929902197515" fill="red" stroke="none" /><path d="M 81.6062741919709 89.86733742301443 l -48.00045683013286 -26.442300906137817 a75.80181687783887,75.80181687783887 0 0,0 0.6394148874314104,-1.1374477369100378 l 47.538184301409025 27.26463215298264" fill="red" stroke="none" /><line stroke="#e1ed5e" stroke-width="0.3" x1="26.266209847984243" x2="21.928928074336255" y1="57.711370442889674" y2="55.22380399835377" /><path d="M 25.398753493254645 57.213857153982495 a86.0,86.0 0 0,1 29.58750427330803,-30.492523968695096" fill="none" id="id119" stroke="none" /><text fill="#e1ed5e" style="font-size:6.75px; font-family:Arial;" text-anchor="middle"><textPath startOffset="21.46611528233685" xlink:href="#id119">November</textPath></text><path d="M 81.96595687620814 89.24020034530311 l -51.83698802372074 -30.927929028977665 a81.36232369113077,81.36232369113077 0 0,0 0.7279378683945964,-1.1965384572656532 l 51.29693435703993 31.815635259450392" fill="red" stroke="none" /><path d="M 82.54541684631803 88.32363383020206 l -50.87408027962958 -34.03257383269817 a82.20774563710256,82.20774563710256 0 0,0 0.7969278925829253,-1.1693933466284825 l 50.28072792137792 34.90324520259707" fill="red" stroke="none" /><path d="M 82.95767976084542 87.72973835380427 l -41.26580080667012 -29.710870693200604 a71.848816638776,71.848816638776 0 0,0 0.731275160112332,-0.9974584965696751 l 40.74826303404416 30.41679163344178" fill="red" stroke="none" /><path d="M 84.07557802195018 86.31012108654704 l -38.5376341582114 -33.12996515440697 a71.8207028448482,71.8207028448482 0 0,0 0.8139957924110377,-0.9305379041263916 l 37.961646502222514 33.7884186147363" fill="red" stroke="none" /><path d="M 84.5562425177563 85.77008943001954 l -37.32419839612586 -34.390594768386435 a71.75242648816638,71.75242648816638 0 0,0 0.8447402169422557,-0.9011099656256647 l 36.72669085721314 35.02797415089015" fill="red" stroke="none" /><path d="M 85.05521093208273 85.24692304244772 l -37.79463199470947 -37.30980155466475 a74.10796079368875,74.10796079368875 0 0,0 0.903990784664162,-0.9001087609474888 l 37.146805409878 37.95484616626235" fill="red" stroke="none" /><path d="M 86.37877921826538 84.01681056812374 l -32.93189816156791 -38.64240768884795 a71.77150370547454,71.77150370547454 0 0,0 0.9471872053849311,-0.7932420448641119 l 32.26185341922386 39.20355089110588" fill="red" stroke="none" /><path d="M 86.65592168130627 83.78471172551755 l -13.342164274469194 -16.212962390436378 a41.996987807793445,41.996987807793445 0 0,0 0.5621528830142308,-0.4545552029516162 l 13.061107992890463 16.44022369065213" fill="red" stroke="none" /><path d="M 86.93701828274178 83.55741782278169 l -34.81442332783606 -43.82146656181335 a76.96753526177386,76.96753526177386 0 0,0 1.0444400885345002,-0.8152020557353439 l 34.05495068414213 44.414247006771916" fill="red" stroke="none" /><path d="M 87.80319425747018 82.90503203632743 l -30.801964260802432 -43.17184379025682 a74.03366005259383,74.03366005259383 0 0,0 1.0437648268677213,-0.7312239638366462 l 30.05426829435105 43.69565259685741" fill="red" stroke="none" /><path d="M 88.39885842347998 82.49532879139004 l -28.1078770379429 -42.41126984580927 a71.87994262491034,71.87994262491034 0 0,0 1.0372377523848273,-0.674648286796225 l 27.373672259773784 42.888817056765035" fill="red" stroke="none" /><path d="M 88.70189139769569 82.29822771554957 l -8.62632064404483 -13.515639570183547 a37.03389911546737,37.03389911546737 0 0,0 0.5403084477122744,-0.33834110038943543 l 8.392393043960313 13.662125011895913" fill="red" stroke="none" /><line stroke="#e1ed5e" stroke-width="0.3" x1="56.762969772571076" x2="54.21961505331055" y1="26.818313649435495" y2="22.513508569990535" /><path d="M 56.25429882871897 25.957352633546506 a86.0,86.0 0 0,1 42.265352541879196,-11.944610805530505" fill="none" id="id120" stroke="none" /><text fill="#e1ed5e" style="font-size:6.75px; font-family:Arial;" text-anchor="middle"><textPath startOffset="22.20632615414155" xlink:href="#id120">December</textPath></text><path d="M 89.63071344664047 81.73862282372117 l -25.790594621360864 -45.41988241501433 a73.2314128615826,73.2314128615826 0 0,0 1.1015256783901677,-0.6129978474275849 l 25.004944853898653 45.8570956600021" fill="red" stroke="none" /><path d="M 90.58718382345135 81.22770947309562 l -23.414352110978705 -46.69601658870322 a73.23743724599571,73.23743724599571 0 0,0 1.1317929865164964,-0.555365903160669 l 22.607087857451784 47.092137651998726" fill="red" stroke="none" /><path d="M 91.23893434514133 80.91482961587045 l -22.492250554034733 -48.99728538254058 a74.91322017690652,74.91322017690652 0 0,0 1.1765580751228286,-0.5278873124629107 l 21.64551036044513 49.377193025520015" fill="red" stroke="none" /><path d="M 92.91201910852362 80.23233633223022 l -21.26394267442915 -59.30299100330936 a84.0,84.0 0 0,0 1.3652719837468588,-0.4763165873111608 l 20.239988686619004 59.66022844379273" fill="red" stroke="none" /><path d="M 95.33964822691252 79.52364482259891 l -11.504595859253161 -50.54815654622977 a72.84083193879991,72.84083193879991 0 0,0 1.224965227518942,-0.2677299530067963 l 10.632787907580699 50.73869999733244" fill="red" stroke="none" /><path d="M 97.11714578562143 79.19881850522333 l -8.002797785647605 -57.74404004717828 a79.29595983743724,79.29595983743724 0 0,0 1.353639699550176,-0.17574128272112377 l 7.007643357589572 57.87323965306354" fill="red" stroke="none" /><path d="M 97.83486435360386 79.11191278185805 l -5.541981201521281 -53.466112800536884 a74.75256992589051,74.75256992589051 0 0,0 1.2810272191313365,-0.12164897015753327 l 4.620828855299708 53.5535873152096" fill="red" stroke="none" /><path d="M 98.55514903715128 79.0497635885617 l -3.7191009531878283 -53.926699853989604 a75.0547932106144,75.0547932106144 0 0,0 1.2896484669944703,-0.07779511740629766 l 2.790290437353735 53.98272824077621" fill="red" stroke="none" /><path d="M 99.27714615592234 79.0124445844662 l -2.061386310120395 -59.850908687740755 a80.88639732249581,80.88639732249581 0 0,0 1.3919137889235351,-0.035949026622216086 l 1.0308458860019807 59.87752450650533" fill="red" stroke="none" /></svg>