<?xml version="1.0" encoding="utf-8" ?>
<svg baseProfile="full" height="200mm" version="1.1" viewBox="0,0,200,200" width="200mm" xmlns="http://www.w3.org/2000/svg" xmlns:ev="http://www.w3.org/2001/xml-events" xmlns:xlink="http://www.w3.org/1999/xlink"><defs /><rect fill="#1a1a1a" height="200" width="200" x="0" y="0" /><rect fill="#1a1a1a" height="200" width="180" x="10" y="0" /><text alignment-baseline="middle" fill="#e1ed5e" style="dominant-baseline: central; font-size:9.0px; font-family:Arial;" text-anchor="middle" x="100.0" y="100.0">2024</text><line stroke="#e1ed5e" stroke-width="0.3" x1="100.0" x2="100.0" y1="15.0" y2="10.0" /><path d="M 100.0 14.0 a86.0,86.0 0 0,1 42.35913384403234,11.155469271406648" fill="none" id="id121" stroke="none" /><text fill="#e1ed5e" style="font-size:6.75px; font-family:Arial;" text-anchor="middle"><textPath startOffset="22.145653131862478" xlink:href="#id121">January</textPath></text><path d="M 100.36049292484886 79.00309439819443 l 0.4982640365751228 -29.02138216756651 a50.02565916505759,50.02565916505759 0 0,0 0.8585038818057975,0.022112014672398633 l -0.9963812324516617 29.00855243554407" fill="red" stroke="none" /><path d="M 101.44090949804482 79.04949213459386 l 2.2976457532908494 -33.40726498892146 a54.48618416672215,54.48618416672215 0 0,0 0.9325725688526999,0.07218701483033153 l -2.8707873169187828 33.362900207096075" fill="red" stroke="none" /><path d="M 103.23170211078529 79.25015418208739 l 5.014824251361495 -32.19876908592744 a53.586948198947994,53.586948198947994 0 0,0 0.9077182389093117,0.14936469078522682 l -5.566819993323877 32.107938396646546" fill="red" stroke="none" /><path d="M 104.9986988182912 79.60360301121754 l 7.961715068853131 -32.48651442284994 a54.44790765030961,54.44790765030961 0 0,0 0.9058957489509871,0.2302751569055716 l -8.518216111029513 32.3450540341091" fill="red" stroke="none" /><path d="M 105.69591212413111 79.78721728523813 l 9.05286519396013 -32.125424887846236 a54.3765979758972,54.3765979758972 0 0,0 0.8962816642908347,0.26089452992612816 l -9.60300687063257 31.96528666361759" fill="red" stroke="none" /><path d="M 108.07796709384702 80.6158196554323 l 12.764589107171663 -30.630367071708893 a54.183642386310666,54.183642386310666 0 0,0 0.8554950149909237,0.36515995102153886 l -13.288519197333017 30.406732471027954" fill="red" stroke="none" /><path d="M 109.3889696526874 81.21577127319529 l 15.009911168909422 -30.02987707869661 a54.57217524469006,54.57217524469006 0 0,0 0.8343638058545758,0.4260321043468359 l -15.523202196477577 29.76778702267694" fill="red" stroke="none" /><line stroke="#e1ed5e" stroke-width="0.3" x1="143.13028292997686" x2="145.6673583964461" y1="26.7553504044142" y2="22.446841604673864" /><path d="M 143.63769802327073 25.89364864446614 a86.0,86.0 0 0,1 29.32050498858742,28.57503671076993" fill="none" id="id122" stroke="none" /><text fill="#e1ed5e" style="font-size:6.75px; font-family:Arial;" text-anchor="middle"><textPath startOffset="20.669276256404974" xlink:href="#id122">February</textPath></text><line stroke="#e1ed5e" stroke-width="0.3" x1="172.87174338648825" x2="177.1583165268699" y1="56.24261187166439" y2="53.66864786411523" /><path d="M 173.72905801456457 55.72781907015455 a86.0,86.0 0 0,1 12.242430191666344,42.057860355516425" fill="none" id="id123" stroke="none" /><text fill="#e1ed5e" style="font-size:6.75px; font-family:Arial;" text-anchor="middle"><textPath startOffset="22.145653131862474" xlink:href="#id123">March</textPath></text><path d="M 118.18653347947321 89.5 l 19.35687002704035 -11.175694120780348 a43.35138824156069,43.35138824156069 0 0,0 0.36656000627170576,0.647676407980684 l -19.54586339833343 10.841760942700546" fill="red" stroke="none" /><path d="M 119.16976305983485 91.42560881287824 l 25.033235679616382 -11.197047909589234 a48.42328883414342,48.42328883414342 0 0,0 0.3328896299502987,0.7617166194341506 l -25.22175919158365 10.765669220379234" fill="red" stroke="none" /><path d="M 119.58574465831526 92.42381321644754 l 25.42681254184123 -9.835637321329893 a48.26284206671549,48.26284206671549 0 0,0 0.2922644106093266,0.7752660722420422 l -25.591907636264995 9.397702968893693" fill="red" stroke="none" /><path d="M 120.26092885502905 94.47779374421319 l 39.78461837193483 -10.84347465161041 a62.23586790065916,62.23586790065916 0 0,0 0.2720908259298923,1.0331731846404253 l -39.964898678669456 10.158920962597186" fill="red" stroke="none" /><path d="M 120.7213421655516 96.59031103205396 l 25.135785499092663 -4.1360839385875225 a46.47380817631001,46.47380817631001 0 0,0 0.12277607296543668,0.7883104620501352 l -25.203083064196363 3.7039852946059457" fill="red" stroke="none" /><path d="M 120.9064616781168 98.02013634271609 l 28.82120485636185 -2.729398065191178 a49.95015480391504,49.95015480391504 0 0,0 0.07351325384171682,0.8543354421854167 l -28.863811732901308 2.234241575630099" fill="red" stroke="none" /><path d="M 120.96210409425399 98.7389718711861 l 28.817310306749714 -1.7335778283598724 a49.86940708435981,49.86940708435981 0 0,0 0.04407128239185012,0.8549711046641821 l -28.842823178598138 1.2386349303189597" fill="red" stroke="none" /><line stroke="#e1ed5e" stroke-width="0.3" x1="184.99686870605535" x2="189.99668451229388" y1="99.2704041080226" y2="99.22748670261217" /><path d="M 185.99683186730306 99.26182062694052 a86.0,86.0 0 0,1 -10.086455211305974,41.156179273409016" fill="none" id="id124" stroke="none" /><text fill="#e1ed5e" style="font-size:6.75px; font-family:Arial;" text-anchor="middle"><textPath startOffset="21.40746469413373" xlink:href="#id124">April</textPath></text><path d="M 120.99922638620191 99.81974689727618 l 29.089605145137867 -0.2496992740583772 a50.0906768093748,50.0906768093748 0 0,0 0.0,0.8599047535644045 l -29.089605145137867 -0.24969927405837364" fill="red" stroke="none" /><path d="M 120.99303781780057 100.54070618675476 l 33.42790782822792 0.8609843287027527 a54.43899394100805,54.43899394100805 0 0,0 -0.03208093283794236,0.934001356208454 l -33.408202208393135 -1.4346919494753174" fill="red" stroke="none" /><path d="M 120.82617615685814 102.69636545807757 l 28.873803601984015 3.738291949963546 a50.1147962580731,50.1147962580731 0 0,0 -0.11778285700258763,0.8522180798061205 l -28.805376228426216 -4.233398337969751" fill="red" stroke="none" /><path d="M 120.7213421655516 103.40968896794604 l 33.055811113404474 5.439321139499308 a54.500341234436384,54.500341234436384 0 0,0 -0.1598292124599177,0.9218524245084364 l -32.95756708345232 -6.005966596928332" fill="red" stroke="none" /><path d="M 120.592083275326 104.11899336999214 l 28.366729271246907 5.674140310836424 a49.92865703442306,49.92865703442306 0 0,0 -0.17532635548493114,0.8390000798505206 l -28.26514520493761 -6.160256841972354" fill="red" stroke="none" /><path d="M 120.43855184770803 104.8234425847677 l 28.41141060246929 6.705015541922498 a50.19187362673946,50.19187362673946 0 0,0 -0.2050994678424766,0.836875819162341 l -28.29212360811052 -7.191747185692939" fill="red" stroke="none" /><path d="M 120.16314734710363 105.8691983318838 l 28.172054457601345 8.200474468686798 a50.34130934150076,50.34130934150076 0 0,0 -0.24864694574933874,0.8276648143632025 l -28.027131191848376 -8.682876886640722" fill="red" stroke="none" /><path d="M 119.94978838288452 106.5578916946017 l 31.583401413339168 10.382091370628405 a54.24603835142153,54.24603835142153 0 0,0 -0.29839086912065615,0.8821395839724251 l -31.400525122646147 -10.922732629074991" fill="red" stroke="none" /><path d="M 119.71291397450082 107.23885506374661 l 31.429884681629726 11.541489004359562 a54.48198947999201,54.48198947999201 0 0,0 -0.3299255879333059,0.875166819510926 l -31.22712840988198 -12.079324104064648" fill="red" stroke="none" /><path d="M 119.4528033332814 107.91128576633889 l 29.648881596814775 12.05794203262429 a53.00703275850589,53.00703275850589 0 0,0 -0.3500335953053643,0.8399532034767613 l -29.437522156972925 -12.565127745542329" fill="red" stroke="none" /><path d="M 119.16976305983485 108.57439118712176 l 31.820319711221128 14.232824268702357 a55.858371063319794,55.858371063319794 0 0,0 -0.3990296870185128,0.8719518795284016 l -31.57130555934756 -14.776965130445447" fill="red" stroke="none" /><path d="M 118.8641267826498 109.22738970284198 l 30.309743223341226 14.82601425113815 a54.74153572141954,54.74153572141954 0 0,0 -0.42015454659530743,0.8405905435634364 l -30.050768763534187 -15.344136650865332" fill="red" stroke="none" /><line stroke="#e1ed5e" stroke-width="0.3" x1="174.33088141563837" x2="178.70328620479359" y1="141.23008692659167" y2="143.65538615756765" /><path d="M 175.20536237346943 141.71514677278685 a86.0,86.0 0 0,1 -30.301960400862466,31.631185727798858" fill="none" id="id125" stroke="none" /><text fill="#e1ed5e" style="font-size:6.75px; font-family:Arial;" text-anchor="middle"><textPath startOffset="22.145653131862474" xlink:href="#id125">May</textPath></text><path d="M 118.18653347947321 110.5 l 27.37107193909898 15.802695752047399 a52.60539150409481,52.60539150409481 0 0,0 -0.4582337664292964,0.7781811148670233 l -27.095764462539915 -16.27022803520797" fill="red" stroke="none" /><path d="M 117.21940702142032 112.02048342749411 l 23.810109549060954 16.62130565154031 a50.03771888940675,50.03771888940675 0 0,0 -0.49772018952377406,0.7001057777721775 l -23.521274261007218 -17.027588656021994" fill="red" stroke="none" /><path d="M 116.79662413953412 112.60449989151573 l 26.263108233488694 19.708326038011595 a53.835483387708905,53.835483387708905 0 0,0 -0.5610375755988232,0.7344161960069889 l -25.920918680535568 -20.15626314725946" fill="red" stroke="none" /><path d="M 116.35404254752997 113.17365903436017 l 22.680494854684184 18.269801186942402 a50.12370996737465,50.12370996737465 0 0,0 -0.5455206354573325,0.6654464748433602 l -22.363527399988225 -18.656449943484255" fill="red" stroke="none" /><path d="M 115.6541949942343 113.99807769240083 l 24.978676330727698 22.33608640109843 a54.50873060789666,54.50873060789666 0 0,0 -0.6297115890317297,0.6921633455797842 l -24.591567040854088 -22.761587322235886" fill="red" stroke="none" /><path d="M 115.16444852881244 114.52719865689866 l 24.531920849348 23.50102523917507 a54.97224349157734,54.97224349157734 0 0,0 -0.6586543825158332,0.6758374207453469 l -24.12487966568136 -23.918685351988156" fill="red" stroke="none" /><path d="M 114.39649973595853 115.28858382429668 l 23.131788509764373 24.565157789994505 a54.7420600572608,54.7420600572608 0 0,0 -0.6896723499092395,0.6383504308656506 l -22.70668638854117 -24.958625966992532" fill="red" stroke="none" /><path d="M 113.59037401385872 116.0094264158162 l 19.550131710694533 23.030005997091205 a51.20908515879885,51.20908515879885 0 0,0 -0.6750470998116529,0.5631482995449555 l -19.151910276720987 -23.362216480548028" fill="red" stroke="none" /><path d="M 113.03279911837588 116.46651593811092 l 18.44378839878885 23.303124130838988 a50.71883114721352,50.71883114721352 0 0,0 -0.687336903058185,0.5344773331381387 l -18.041041551095436 -23.61630251559792" fill="red" stroke="none" /><path d="M 112.45986205192187 116.90419585922612 l 18.11580898725271 24.577574133063013 a51.53260037286104,51.53260037286104 0 0,0 -0.7165951377945222,0.5187596175220146 l -17.69123283908422 -24.884934521958105" fill="red" stroke="none" /><path d="M 111.8722381534696 117.32195027204791 l 15.914166493454177 23.21924451457731 a49.14949397429922,49.14949397429922 0 0,0 -0.7000379088508031,0.4710167467740608 l -15.513232296506372 -23.48901093540849" fill="red" stroke="none" /><line stroke="#e1ed5e" stroke-width="0.3" x1="143.1302829299769" x2="145.66735839644613" y1="173.24464959558577" y2="177.55315839532614" /><path d="M 143.63769802327073 174.10635135553383 a86.0,86.0 0 0,1 -40.68552437913181,11.842963189579606" fill="none" id="id126" stroke="none" /><text fill="#e1ed5e" style="font-size:6.75px; font-family:Arial;" text-anchor="middle"><textPath startOffset="21.407464694133747" xlink:href="#id126">June</textPath></text><path d="M 110.34350942703117 118.27599006163325 l 17.134558137504396 30.27512242732006 a55.78758572474865,55.78758572474865 0 0,0 -0.8374933632603387,0.464543450986208 l -16.612320586087964 -30.564798793739413" fill="red" stroke="none" /><path d="M 109.71004243097381 118.62028667847754 l 13.007846058718236 24.94425996638481 a49.13219089153739,49.13219089153739 0 0,0 -0.7511909063259302,0.38356342921713604 l -12.577727930678725 -25.16388134727478" fill="red" stroke="none" /><path d="M 108.73861861582097 119.09545874513695 l 12.052547283091444 26.336990952026266 a49.963787535788,49.963787535788 0 0,0 -0.7829720390760435,0.35021343407643657 l -11.598661841159773 -26.540008137012553" fill="red" stroke="none" /><path d="M 108.07796709384702 119.3841803445677 l 12.469309532331662 29.92180358484774 a53.41601471469472,53.41601471469472 0 0,0 -0.8494304673789556,0.3454559762382683 l -11.953824603762266 -30.1314468176653" fill="red" stroke="none" /><path d="M 106.72888874123015 119.89276391827305 l 10.768058888813894 31.83385274610384 a54.60573273853119,54.60573273853119 0 0,0 -0.8905343741443644,0.2927363370414969 l -10.220001777021794 -32.01401000454736" fill="red" stroke="none" /><path d="M 105.69591212413111 120.21278271476187 l 8.919465028192558 31.652034760679477 a53.88477095678807,53.88477095678807 0 0,0 -0.8924821688164216,0.24324998380283783 l -8.374801458441443 -31.800485238626457" fill="red" stroke="none" /><path d="M 103.94208987418118 120.62667999033965 l 5.574150253544551 29.166309538241105 a50.694187362673944,50.694187362673944 0 0,0 -0.8561651175426374,0.1560218047769146 l -5.072650402450857 -29.257699516949383" fill="red" stroke="none" /><path d="M 102.875027216393 120.80226474461374 l 4.07543578524567 29.487823165971996 a50.7681187162927,50.7681187162927 0 0,0 -0.8643203991407933,0.11190357996600267 l -3.5686375642141015 -29.553438342138392" fill="red" stroke="none" /><path d="M 101.44090949804482 120.95050786540614 l 2.2686121800272647 32.985123205662354 a54.06304514281909,54.06304514281909 0 0,0 -0.9264234350267119,0.05573133333887805 l -1.7020443928680877 -33.019206516825925" fill="red" stroke="none" /><path d="M 100.72087961077811 120.9876233191556 l 1.03551147432441 30.147786732830284 a51.165565283973635,51.165565283973635 0 0,0 -0.8780661193518219,0.022615868519550626 l -0.5178320409018443 -30.16112031869988" fill="red" stroke="none" /><line stroke="#e1ed5e" stroke-width="0.3" x1="101.45913802915013" x2="101.54496967792366" y1="184.9874750549273" y2="189.98673829345242" /><path d="M 101.47630435890484 185.9873277026323 a86.0,86.0 0 0,1 -42.54439059252881,-10.42667462771756" fill="none" id="id127" stroke="none" /><text fill="#e1ed5e" style="font-size:6.75px; font-family:Arial;" text-anchor="middle"><textPath startOffset="22.145653131862474" xlink:href="#id127">July</textPath></text><path d="M 100.0 121.0 l 3.4213768704529795e-15 27.937662294427057 a48.93766229442706,48.93766229442706 0 0,0 -0.840080048370638,-0.007211076849701929 l 0.4795871235217825 -27.933545615771788" fill="red" stroke="none" /><path d="M 99.27912038922189 120.98762331915562 l -1.0004310504927592 29.126458469071853 a50.14363472934283,50.14363472934283 0 0,0 -0.860021214254782,-0.036933011383635965 l 1.5002780253483798 -29.104992889262387" fill="red" stroke="none" /><path d="M 98.19965949673042 120.92268563240118 l -3.108760949258887 36.12851453905722 a57.2620181103935,57.2620181103935 0 0,0 -0.9786363476797805,-0.09267787960965014 l 3.7284968603236823 -36.06982490394239" fill="red" stroke="none" /><path d="M 97.48249496171623 120.84855314841334 l -4.016878003690809 33.265512194458836 a54.50715760037286,54.50715760037286 0 0,0 -0.9279770337060507,-0.12014520576069795 l 4.587332859287653 -33.191655392497736" fill="red" stroke="none" /><path d="M 96.76829788921471 120.74984581791261 l -4.331134958182418 27.808993378111342 a49.14425061588655,49.14425061588655 0 0,0 -0.8324626447461516,-0.13698141140378828 l 4.807875105981633 -27.730545968211885" fill="red" stroke="none" /><path d="M 96.05791012581884 120.62667999033965 l -1.5112569394145174 7.90753490341422 a29.05065250682469,29.05065250682469 0 0,0 -0.489024178989591,-0.09781853171881569 l 1.6467776039350666 -7.880426975032543" fill="red" stroke="none" /><path d="M 95.70440661134978 120.55596938700252 l -5.979302112920151 28.61312514205348 a50.23119881483454,50.23119881483454 0 0,0 -0.8425388609933817,-0.1836274232957201 l 6.4696033905326695 -28.50626626062404" fill="red" stroke="none" /><path d="M 95.00130118170881 120.39639698878247 l -8.92461942458044 36.41549278613453 a58.493158665690125,58.493158665690125 0 0,0 -0.9732000009676286,-0.24738363457697357 l 9.548424718773447 -36.2569239197223" fill="red" stroke="none" /><path d="M 94.30408787586889 120.21278271476187 l -8.690067941430211 30.83798542686287 a53.03901724482322,53.03901724482322 0 0,0 -0.8742345129721358,-0.25447692549588274 l 9.218162466783953 -30.684264807064473" fill="red" stroke="none" /><path d="M 93.27111125876986 119.89276391827306 l -17.18652224975372 50.808899186523966 a74.6369348824822,74.6369348824822 0 0,0 -1.2101640723684168,-0.42095788360748754 l 18.056192094167155 -50.506382870347885" fill="red" stroke="none" /><path d="M 92.59220618246901 119.65005319985036 l -9.709319744760096 25.755124159554857 a48.52448565150809,48.52448565150809 0 0,0 -0.7769180011558008,-0.30052857294662794 l 10.150010008409426 -25.584655698470186" fill="red" stroke="none" /><path d="M 91.92203290615298 119.3841803445677 l -11.324294405032 27.174184107449687 a50.43936014381784,50.43936014381784 0 0,0 -0.7963772692636434,-0.3399261007290152 l 11.789106749466074 -26.975783357061268" fill="red" stroke="none" /><path d="M 90.93487009805054 118.94263497670748 l -13.839201284911516 28.918608022691902 a53.05946634263267,53.05946634263267 0 0,0 -0.8182268740326563,-0.4002357659609121 l 14.333588408206241 -28.676778506633767" fill="red" stroke="none" /><path d="M 90.28995756902619 118.62028667847754 l -14.927032486332974 28.624552995551888 a53.28283341101271,53.28283341101271 0 0,0 -0.8073901675221763,-0.42988978777352077 l 15.416211469641713 -28.364092740055796" fill="red" stroke="none" /><line stroke="#e1ed5e" stroke-width="0.3" x1="58.13341422392154" x2="55.67067388415222" y1="173.97424548756322" y2="178.32567169271397" /><path d="M 57.64086615596768 174.84453072859336 a86.0,86.0 0 0,1 -31.369924170532247,-30.572349798747897" fill="none" id="id128" stroke="none" /><text fill="#e1ed5e" style="font-size:6.75px; font-family:Arial;" text-anchor="middle"><textPath startOffset="22.145653131862474" xlink:href="#id128">August</textPath></text><path d="M 89.65649057296885 118.27599006163327 l -13.503930544325636 23.86015135019009 a48.41647246820693,48.41647246820693 0 0,0 -0.7198089230573232,-0.41558187549224335 l 13.911531935243358 -23.624822577421675" fill="red" stroke="none" /><path d="M 88.72937992617639 117.7192867562869 l -16.338046647064996 25.68612300660426 a51.44189027232173,51.44189027232173 0 0,0 -0.7410433767255092,-0.480335363761398 l 16.776575656047516 -25.401873801138965" fill="red" stroke="none" /><path d="M 88.1277618465304 117.32195027204791 l -17.17903533128096 25.064725950029782 a51.38683500898861,51.38683500898861 0 0,0 -0.7233428894143256,-0.5049495144510138 l 17.606773311869052 -24.766131619773642" fill="red" stroke="none" /><path d="M 87.54013794807813 116.9041958592261 l -18.736147348616623 25.419182259685044 a52.57812604034889,52.57812604034889 0 0,0 -0.7219402615432193,-0.5417574312974248 l 19.16974059907061 -25.093805801123604" fill="red" stroke="none" /><path d="M 86.68645165197938 116.24036423190432 l -18.029335885002183 21.992858250693995 a49.43840302283773,49.43840302283773 0 0,0 -0.6517056587985597,-0.5436760392847114 l 18.404215877962635 -21.680120027497413" fill="red" stroke="none" /><path d="M 86.13680546590413 115.77377054828092 l -21.77817956842273 24.779570583582228 a53.98963812504161,53.98963812504161 0 0,0 -0.6909001882547128,-0.6178072086393365 l 22.20034478350081 -24.40206784505951" fill="red" stroke="none" /><path d="M 85.60350026404147 115.28858382429668 l -22.807198675348697 24.220454634158397 a54.26858479259604,54.26858479259604 0 0,0 -0.6727431321268537,-0.644472702512209 l 23.219614293340864 -23.825369801340607" fill="red" stroke="none" /><path d="M 85.08716467003676 114.78537596483092 l -21.282737910064903 21.10083526028213 a50.969988015180775,50.969988015180775 0 0,0 -0.6107010347525971,-0.6266330614809079 l 21.64182574596831 -20.73237950673348" fill="red" stroke="none" /><path d="M 84.58840730492382 114.26474011684316 l -20.671969784244652 19.13366661770751 a49.16784572874359,49.16784572874359 0 0,0 -0.5680110675449977,-0.6243436641253821 l 20.997378552631528 -18.775985378024455" fill="red" stroke="none" /><path d="M 84.1078160697243 113.72728997021213 l -24.63822869195717 21.281915128264476 a53.55706105599573,53.55706105599573 0 0,0 -0.5950073098545394,-0.7009171148840464 l 24.99993056531882 -20.855831230930875" fill="red" stroke="none" /><path d="M 83.20337586046588 112.60449989151573 l -24.2085441398512 18.166542839183375 a51.2667621013383,51.2667621013383 0 0,0 -0.5221836607596422,-0.7084424240962709 l 24.51682982019467 -17.748294105818225" fill="red" stroke="none" /><path d="M 82.37810715431573 111.42229804090323 l -25.816413277861155 16.733887181653152 a51.76540548638391,51.76540548638391 0 0,0 -0.4769376260679705,-0.7498251654129351 l 26.099868595555016 -16.288248341561545" fill="red" stroke="none" /><path d="M 81.99639281039703 110.81064883170644 l -23.19302499203256 13.926745117981245 a48.053107730208396,48.053107730208396 0 0,0 -0.418579843515309,-0.710840084583476 l 23.428678545677638 -13.52655386510421" fill="red" stroke="none" /><line stroke="#e1ed5e" stroke-width="0.3" x1="26.387840678322732" x2="22.057713659400548" y1="142.50000000000003" y2="145.00000000000006" /><path d="M 25.521815274538298 143.00000000000003 a86.0,86.0 0 0,1 -11.493303480769221,-40.785679425670985" fill="none" id="id129" stroke="none" /><text fill="#e1ed5e" style="font-size:6.75px; font-family:Arial;" text-anchor="middle"><textPath startOffset="21.40746469413373" xlink:href="#id129">September</textPath></text><path d="M 81.4637452351635 109.86951160357371 l -25.462049467861043 13.557107185996275 a49.84633630734403,49.84633630734403 0 0,0 -0.39566581207596546,-0.758741365148521 l 25.69102334891196 -13.118019577743251" fill="red" stroke="none" /><path d="M 81.1358732173502 109.22738970284198 l -26.44843143417009 12.93725316225328 a50.443030494706704,50.443030494706704 0 0,0 -0.37380865887319265,-0.7811163273727285 l 26.666619351003195 -12.481324332815445" fill="red" stroke="none" /><path d="M 80.68587082218212 108.24405325689762 l -29.284651319632676 12.499876275343683 a52.840818296824025,52.840818296824025 0 0,0 -0.3489359929196712,-0.8373193573192075 l 29.49491315708883 -11.995324408583194" fill="red" stroke="none" /><path d="M 80.16572619554312 106.89939002012753 l -25.45628478187206 8.855017274900511 a47.952435248685,47.952435248685 0 0,0 -0.2637716829681048,-0.7797941115386722 l 25.604541886412534 -8.416721488887678" fill="red" stroke="none" /><path d="M 79.94057633289273 106.21446072829308 l -30.409179404797694 9.420841512042609 a52.83505060257008,52.83505060257008 0 0,0 -0.26096408958538153,-0.8686645802594636 l 30.566419814386705 -8.897439328192423" fill="red" stroke="none" /><path d="M 79.64726062577567 105.17358676015961 l -31.18058915016786 7.9259838312272715 a53.17219854850523,53.17219854850523 0 0,0 -0.2172779941911419,-0.8865683625971794 l 31.3120546708753 -7.389559644021992" fill="red" stroke="none" /><path d="M 79.56144815229197 104.8234425847677 l -21.176130588067423 4.997509159169733 a42.75784006924562,42.75784006924562 0 0,0 -0.1624576771800094,-0.7158185011082346 l 21.258799126805098 -4.633256324122472" fill="red" stroke="none" /><path d="M 79.407916724674 104.11899336999214 l -28.10811140668812 5.622409494908955 a49.664916106265395,49.664916106265395 0 0,0 -0.1600480484003144,-0.8374390190982952 l 28.200485747370593 -5.139067910777345" fill="red" stroke="none" /><path d="M 79.2786578344484 103.40968896794605 l -33.33881699340372 5.485889649356832 a54.787152939609825,54.787152939609825 0 0,0 -0.1447385473848611,-0.9293253026389581 l 33.42807703292684 -4.912776164786424" fill="red" stroke="none" /><path d="M 79.13060592940153 102.33845913500099 l -33.13150051245579 3.71245373811757 a54.33884579532592,54.33884579532592 0 0,0 -0.0959148099495434,-0.9278887793604297 l 33.190347714887 -3.143160436474209" fill="red" stroke="none" /><path d="M 79.06263194458094 101.62068470465958 l -35.5087669234707 2.7486031330139395 a56.61498768226912,56.61498768226912 0 0,0 -0.06668716828323401,-0.9696167910166162 l 35.550718052919 -2.1386429178429798" fill="red" stroke="none" /><path d="M 79.00696218219943 100.54070618675478 l -32.95773450803598 0.8488743317942175 a53.9686646913909,53.9686646913909 0 0,0 -0.015904227284349055,-0.9263415061449505 l 32.967450166918994 -0.28298590968021464" fill="red" stroke="none" /><line stroke="#e1ed5e" stroke-width="0.3" x1="15.003131293944662" x2="10.003315487706104" y1="100.72959589197737" y2="100.7725132973878" /><path d="M 14.003168132696942 100.73817937305945 a86.0,86.0 0 0,1 10.791469493833604,-42.45332614584628" fill="none" id="id130" stroke="none" /><text fill="#e1ed5e" style="font-size:6.75px; font-family:Arial;" text-anchor="middle"><textPath startOffset="22.145653131862435" xlink:href="#id130">October</textPath></text><path d="M 79.01933749520258 99.09900007780938 l -41.95224489066008 -1.8016099050048395 a62.990911512084686,62.990911512084686 0 0,0 0.05566719982600558,-1.0799288050124798 l 41.915136101377506 2.5215105033940315" fill="red" stroke="none" /><path d="M 79.0935383218832 98.0201363427161 l -41.824755363974724 -3.960847818002587 a63.011884945735396,63.011884945735396 0 0,0 0.11122380095995624,-1.0759893801890534 l 41.75059917053311 4.678241720474553" fill="red" stroke="none" /><path d="M 79.17382384314186 97.30363454192245 l -32.26989579721441 -4.177984076770515 a53.539233637392634,53.539233637392634 0 0,0 0.12583117902081856,-0.9104517286629126 l 32.19342010163839 4.7313241136334945" fill="red" stroke="none" /><path d="M 79.2786578344484 96.59031103205396 l -28.433554199486142 -4.6787305232890954 a49.8159248285505,49.8159248285505 0 0,0 0.1460915629694961,-0.8426173128859603 l 28.349047819024413 5.166140869095648" fill="red" stroke="none" /><path d="M 79.407916724674 95.88100663000787 l -27.074154099277166 -5.415589075763508 a48.610476729476,48.610476729476 0 0,0 0.17069751580716225,-0.8168494063335967 l 26.977198872645637 5.879554933382514" fill="red" stroke="none" /><path d="M 79.56144815229197 95.17655741523228 l -31.402380849641627 -7.4108763762654295 a53.26500599240961,53.26500599240961 0 0,0 0.21765723401585083,-0.8881157904979017 l 31.27053608910948 7.948847991371449" fill="red" stroke="none" /><path d="M 79.73907114497095 94.47779374421319 l -30.26542855574164 -8.24897713725009 a52.369440375524334,52.369440375524334 0 0,0 0.2438458499585255,-0.8653228971400264 l 30.119364213708533 8.767307958293129" fill="red" stroke="none" /><path d="M 79.94057633289273 93.78553927170692 l -28.06118907210081 -8.693428105002234 a50.37696417870697,50.37696417870697 0 0,0 0.2630044183814987,-0.8238575946470229 l 27.907819937942055 9.173854733340649" fill="red" stroke="none" /><path d="M 80.28708602549916 92.7611449362534 l -49.405991051312775 -18.142564258325027 a73.63178307477195,73.63178307477195 0 0,0 0.44589064300678743,-1.182777905570689 l 49.08726972449155 18.98801044408986" fill="red" stroke="none" /><path d="M 80.5471966667186 92.08871423366112 l -30.83497285804738 -12.540315022871614 a54.28746088288168,54.28746088288168 0 0,0 0.3584889423901226,-0.8602429584191471 l 30.615158071120778 13.067790490732024" fill="red" stroke="none" /><path d="M 81.1358732173502 90.77261029715801 l -26.355643141602787 -12.891865758677994 a50.339736333976965,50.339736333976965 0 0,0 0.38636967005753964,-0.7729981588963221 l 26.130453558333503 13.342395773738087" fill="red" stroke="none" /><path d="M 81.46374523516351 90.13048839642627 l -46.71567549100226 -24.873465928072477 a73.92488681004062,73.92488681004062 0 0,0 0.6060244306432058,-1.1150166944293434 l 46.2818057107437 25.671737455976437" fill="red" stroke="none" /><line stroke="#e1ed5e" stroke-width="0.3" x1="26.387840678322718" x2="22.05771365940052" y1="57.49999999999999" y2="54.99999999999999" /><path d="M 25.521815274538284 56.99999999999999 a86.0,86.0 0 0,1 29.574782752854787,-30.34633250058573" fill="none" id="id131" stroke="none" /><text fill="#e1ed5e" style="font-size:6.75px; font-family:Arial;" text-anchor="middle"><textPath startOffset="21.40746469413373" xlink:href="#id131">November</textPath></text><path d="M 81.99639281039701 89.18935116829357 l -32.05577682346808 -19.248572945214825 a58.39091317664292,58.39091317664292 0 0,0 0.5233828783118053,-0.8549065979720024 l 31.720625980700877 19.79601665931137" fill="red" stroke="none" /><path d="M 82.37810715431573 88.57770195909679 l -28.663588570933843 -18.579391808026855 a55.15838271522738,55.15838271522738 0 0,0 0.5218391730558554,-0.7901310190007302 l 28.34042495895726 19.068702705366647" fill="red" stroke="none" /><path d="M 82.78059297857968 87.97951657250589 l -29.898498160910933 -20.871473750699995 a57.46283873759904,57.46283873759904 0 0,0 0.5715771146614984,-0.8039947923345218 l 29.535805947719464 21.381645769744036" fill="red" stroke="none" /><path d="M 83.2033758604659 87.39550010848427 l -29.39507080774565 -22.058609142491914 a57.751223450296294,57.751223450296294 0 0,0 0.6018448122603303,-0.7878341787267862 l 29.012074018131013 22.559964234459585" fill="red" stroke="none" /><path d="M 83.64595745247003 86.82634096563983 l -43.23071206179372 -34.82360149544108 a76.51195985085559,76.51195985085559 0 0,0 0.8327167519142519,-1.015779039485479 l 42.626548490640836 35.56058281662505" fill="red" stroke="none" /><path d="M 83.8745106332314 86.54754324733833 l -16.626089234752882 -13.870074966985433 a42.65192422930954,42.65192422930954 0 0,0 0.4738536095038353,-0.5581983605075644 l 16.385541061741932 14.153440109942554" fill="red" stroke="none" /><path d="M 84.34580500576568 86.00192230759919 l -21.70600734427579 -19.409645613134707 a50.11846660896198,50.11846660896198 0 0,0 0.578993106172112,-0.6364148483465893 l 21.369616537261813 19.779398037038952" fill="red" stroke="none" /><path d="M 85.34317274990677 84.96080404539775 l -36.71501558091884 -37.672840402359306 a73.60451761102604,73.60451761102604 0 0,0 0.9124419570839107,-0.8740987546142881 l 36.062901137969625 38.29755128727916" fill="red" stroke="none" /><path d="M 85.86807049272753 84.46653392183569 l -25.743677464905105 -28.29681116244731 a59.255018643052125,59.255018643052125 0 0,0 0.7582807545533345,-0.6780593265127542 l 25.254131683528378 28.734566018843466" fill="red" stroke="none" /><path d="M 86.40962598614128 83.9905735841838 l -34.076489686240784 -40.14201916627714 a73.655378187629,73.655378187629 0 0,0 0.9709380528260381,-0.809991056275974 l 33.38237729925284 40.72107240646499" fill="red" stroke="none" /><path d="M 87.25179093698888 83.31218511350988 l -38.244627189033366 -50.06344465947034 a84.0,84.0 0 0,0 1.1533880443569906,-0.8655238909439964 l 37.37958615576562 50.71258757767834" fill="red" stroke="none" /><path d="M 87.83215693770416 82.88440491214696 l -22.77703314693176 -32.038749567167336 a60.309982355682806,60.309982355682806 0 0,0 0.848948896931592,-0.5926322627522136 l 22.223689158826403 32.42502664572468" fill="red" stroke="none" /><path d="M 88.4268655584334 82.4767994020092 l -21.068533322850943 -31.90044473999868 a59.229850522671285,59.229850522671285 0 0,0 0.8532324182084173,-0.5530549450210708 l 20.517815272385498 32.25741352672366" fill="red" stroke="none" /><path d="M 89.03521579738668 82.08984904055464 l -30.72004882253913 -50.17889105032034 a79.8357247486517,79.8357247486517 0 0,0 1.1749813036335812,-0.7055425128770211 l 29.854134762348117 50.69884756373328" fill="red" stroke="none" /><line stroke="#e1ed5e" stroke-width="0.3" x1="56.869717070023135" x2="54.33264160355391" y1="26.7553504044142" y2="22.446841604673864" /><path d="M 56.362301976729285 25.89364864446614 a86.0,86.0 0 0,1 42.16139366436587,-11.88097634709845" fill="none" id="id132" stroke="none" /><text fill="#e1ed5e" style="font-size:6.75px; font-family:Arial;" text-anchor="middle"><textPath startOffset="22.145653131862474" xlink:href="#id132">December</textPath></text><path d="M 89.65649057296885 81.72400993836675 l -26.736170931585985 -47.240252225693816 a75.28134363140022,75.28134363140022 0 0,0 1.1301371953912616,-0.6268680515761169 l 25.921289548038622 47.69225319270308" fill="red" stroke="none" /><path d="M 90.28995756902619 81.37971332152246 l -18.632303604730673 -35.729898923389264 a61.296258073107396,61.296258073107396 0 0,0 0.937169518004469,-0.478525433490277 l 18.01620686501262 36.044482308552375" fill="red" stroke="none" /><path d="M 91.5904679813234 80.7573450057729 l -23.989339331858005 -54.89230307669733 a80.90536986483787,80.90536986483787 0 0,0 1.2773991846449253,-0.5452457530741278 l 23.04350507204265 55.296023479430865" fill="red" stroke="none" /><path d="M 93.27111125876988 80.10723608172694 l -17.877208920350885 -52.85079160116594 a76.79247952593383,76.79247952593383 0 0,0 1.2523656265372467,-0.4116774565849151 l 16.96732055616588 53.14988997915288" fill="red" stroke="none" /><path d="M 93.95794788825049 79.88797359093562 l -11.884918455350004 -39.561028177620884 a62.30770191091285,62.30770191091285 0 0,0 1.0270089127606103,-0.29894732671635027 l 11.204049530207769 39.759219198639755" fill="red" stroke="none" /><path d="M 94.6519064749342 79.69241777938228 l -14.408899522826735 -54.712938432546 a77.57845895199414,77.57845895199414 0 0,0 1.2907382341694777,-0.3281006117332821 l 13.46755599543188 54.95222427611454" fill="red" stroke="none" /><path d="M 95.35216902796891 79.52079915486377 l -12.811204977629313 -56.44853295739099 a78.88405519675078,78.88405519675078 0 0,0 1.323139474751789,-0.2883720901882938 l 11.840303086258405 56.660136505713" fill="red" stroke="none" /><path d="M 96.41257539226777 79.30868818359171 l -9.711413275775548 -56.01285106702311 a77.84849191024702,77.84849191024702 0 0,0 1.318688567898368,-0.2169897020278261 l 8.748447204824108 56.1713067675466" fill="red" stroke="none" /><path d="M 97.48249496171623 79.15144685158666 l -5.053909383649684 -41.85361967105157 a63.157650309607824,63.157650309607824 0 0,0 1.0774818402468402,-0.1207340876117087 l 4.334691641802044 41.934209519170246" fill="red" stroke="none" /><path d="M 98.9189461498227 79.02784411241856 l -2.9998542546358946 -58.1963711224289 a79.2736367268127,79.2736367268127 0 0,0 1.359634372023174,-0.0583885500813189 l 2.0003941220119006 58.239292240936045" fill="red" stroke="none" /><path d="M 99.27912038922189 79.0123766808444 l -0.7726872830521412 -22.495947170285078 a43.50921332978227,43.50921332978227 0 0,0 0.7466733904432974,-0.019231657904963066 l 0.3864005785380999 22.505896545540086" fill="red" stroke="none" /></svg>